<?xml version="1.0" standalone="no"?>
<!DOCTYPE svg PUBLIC "-//W3C//DTD SVG 20010904//EN"
 "http://www.w3.org/TR/2001/REC-SVG-20010904/DTD/svg10.dtd">
<svg version="1.0" xmlns="http://www.w3.org/2000/svg"
 width="223.000000pt" height="50.000000pt" viewBox="0 0 223.000000 50.000000"
 preserveAspectRatio="xMidYMid meet">
<metadata>
Created by potrace 1.10, written by Peter Selinger 2001-2011
</metadata>
<g transform="translate(0.000000,50.000000) scale(0.100000,-0.100000)"
fill="#000000" stroke="none">
<path d="M1195 444 c-15 -32 -58 -131 -96 -219 -47 -107 -79 -167 -97 -182
l-27 -23 70 1 c59 0 66 2 43 11 -33 12 -34 27 -4 92 l22 50 93 1 94 1 24 -53
c27 -59 25 -79 -9 -93 -16 -6 7 -9 77 -9 91 0 97 1 70 13 -27 11 -40 37 -124
232 -51 120 -97 223 -102 228 -4 5 -20 -18 -34 -50z m45 -140 c19 -48 37 -91
38 -95 2 -5 -33 -9 -77 -9 -45 0 -81 2 -81 5 0 2 16 40 35 84 19 43 35 84 35
90 0 30 18 2 50 -75z"/>
<path d="M1536 439 c-11 -24 -33 -50 -52 -61 -42 -25 -43 -36 -4 -30 l30 4 0
-150 0 -151 27 -21 c33 -26 66 -20 105 17 35 33 30 39 -11 16 -32 -18 -32 -18
-52 6 -17 20 -19 39 -19 153 l0 130 40 -4 c28 -2 40 0 40 9 0 9 -14 13 -41 13
l-41 0 4 55 c3 30 2 55 -1 55 -3 0 -14 -19 -25 -41z"/>
<path d="M560 369 c0 -5 4 -9 10 -9 14 0 29 -32 84 -185 28 -78 55 -143 59
-145 5 -3 30 43 55 102 26 59 49 108 52 108 3 0 23 -50 45 -110 22 -60 43
-110 46 -110 4 0 9 8 12 18 21 70 119 309 132 318 25 19 17 24 -35 24 -27 0
-50 -4 -50 -10 0 -5 7 -10 15 -10 28 0 26 -25 -8 -116 -19 -49 -37 -98 -41
-109 -6 -15 -17 4 -47 84 -45 119 -46 131 -19 138 43 11 16 21 -60 21 -44 0
-80 -2 -80 -4 0 -3 11 -9 25 -14 14 -5 31 -25 40 -47 16 -37 16 -39 -17 -108
-18 -38 -35 -74 -38 -78 -8 -9 -80 182 -80 211 0 13 6 22 15 22 8 0 15 4 15 9
0 6 -29 10 -65 10 -36 0 -65 -4 -65 -10z"/>
</g>
</svg>
